<svg xmlns="http://www.w3.org/2000/svg" xmlns:xlink="http://www.w3.org/1999/xlink" viewBox="0 0 340 60"><defs><style>.cls-1{fill:#0093dd;}</style></defs><g id="Layer_2" data-name="Layer 2"><image width="804" height="804" transform="translate(21.82 1.45) scale(0.07)" xlink:href="C:%5CUsers%5CAnr26012021%5CPictures%5Clogo-kominfo.png"/><path class="cls-1" d="M98.51,8.84h9.24a18,18,0,0,1,4.77.48,8.4,8.4,0,0,1,3.78,2.3,11.15,11.15,0,0,1,2.39,4.06,18.42,18.42,0,0,1,.82,5.92,16.59,16.59,0,0,1-.77,5.34,11.11,11.11,0,0,1-2.68,4.42,8.9,8.9,0,0,1-3.56,2,15.06,15.06,0,0,1-4.48.53H98.51Zm5,4.24V29.67h3.78a13.79,13.79,0,0,0,3.06-.24,4.6,4.6,0,0,0,2-1A5.32,5.32,0,0,0,113.77,26a16.41,16.41,0,0,0,.51-4.59,15.08,15.08,0,0,0-.51-4.46,5.72,5.72,0,0,0-1.44-2.43A4.72,4.72,0,0,0,110,13.32a22.87,22.87,0,0,0-4.15-.24Z"/><path class="cls-1" d="M123.65,33.89v-25h5V33.89Z"/><path class="cls-1" d="M132.24,25.74l4.92-.48A6,6,0,0,0,139,28.9a5.39,5.39,0,0,0,3.66,1.16,5.61,5.61,0,0,0,3.68-1,3.07,3.07,0,0,0,1.24-2.42A2.27,2.27,0,0,0,147,25.1,4.14,4.14,0,0,0,145.21,24c-.59-.2-1.94-.57-4.05-1.09a13.77,13.77,0,0,1-5.71-2.48,6.54,6.54,0,0,1-2.3-5,6.45,6.45,0,0,1,1.08-3.58,6.85,6.85,0,0,1,3.13-2.54,12.53,12.53,0,0,1,4.93-.87q4.71,0,7.1,2.07a7.3,7.3,0,0,1,2.5,5.52l-5,.22a4.34,4.34,0,0,0-1.4-2.78,5.12,5.12,0,0,0-3.2-.84,5.8,5.8,0,0,0-3.45.9,1.83,1.83,0,0,0-.81,1.56,1.91,1.91,0,0,0,.76,1.52c.63.54,2.18,1.09,4.64,1.67a24.84,24.84,0,0,1,5.46,1.81,7,7,0,0,1,2.77,2.54,7.92,7.92,0,0,1-.19,8A7.2,7.2,0,0,1,148,33.42a14.16,14.16,0,0,1-5.45.92c-3.17,0-5.6-.74-7.3-2.2A9.58,9.58,0,0,1,132.24,25.74Z"/><path class="cls-1" d="M156.94,33.89v-25H162V20L172.21,8.84H179l-9.44,9.76,9.95,15.29H173L166.1,22.13,162,26.32v7.57Z"/><path class="cls-1" d="M181.12,21.52a16,16,0,0,1,1.14-6.43,11.74,11.74,0,0,1,2.34-3.43,9.63,9.63,0,0,1,3.23-2.26,13.85,13.85,0,0,1,5.41-1,11.77,11.77,0,0,1,8.86,3.44q3.32,3.44,3.32,9.55t-3.3,9.49a11.66,11.66,0,0,1-8.82,3.43,11.8,11.8,0,0,1-8.88-3.41Q181.12,27.51,181.12,21.52Zm5.21-.17c0,2.83.66,5,2,6.45a6.75,6.75,0,0,0,9.95,0q1.94-2.19,1.94-6.54t-1.89-6.43a7,7,0,0,0-10.05,0Q186.33,17,186.33,21.35Z"/><path class="cls-1" d="M209.3,33.89v-25h7.57l4.55,17.09,4.49-17.09h7.59V33.89h-4.7V14.17l-5,19.72H219l-5-19.72V33.89Z"/><path class="cls-1" d="M238.37,33.89v-25h5.06V33.89Z"/><path class="cls-1" d="M248.3,33.89v-25h4.92l10.25,16.73V8.84h4.7V33.89H263.1L253,17.55V33.89Z"/><path class="cls-1" d="M273.56,33.89v-25h17.17v4.24H278.62V19h10.46v4.23H278.62V33.89Z"/><path class="cls-1" d="M293.88,21.52A16,16,0,0,1,295,15.09a11.74,11.74,0,0,1,2.34-3.43,9.63,9.63,0,0,1,3.23-2.26,13.76,13.76,0,0,1,5.4-1,11.78,11.78,0,0,1,8.87,3.44q3.31,3.44,3.32,9.55t-3.3,9.49a11.66,11.66,0,0,1-8.82,3.43,11.78,11.78,0,0,1-8.88-3.41Q293.88,27.51,293.88,21.52Zm5.21-.17c0,2.83.66,5,2,6.45a6.75,6.75,0,0,0,9.95,0q1.94-2.19,1.94-6.54t-1.89-6.43a7,7,0,0,0-10.06,0Q299.1,17,299.09,21.35Z"/><path d="M97.07,51.41V41h2.11V45.6L103.44,41h2.84L102.34,45l4.15,6.38h-2.73l-2.87-4.9-1.71,1.74v3.16Z"/><path d="M117,51.41h-2.3L113.8,49h-4.18l-.86,2.37h-2.24L110.59,41h2.23Zm-3.89-4.13-1.44-3.88-1.41,3.88Z"/><path d="M118.13,41h4.18a12,12,0,0,1,1.85.1,2.83,2.83,0,0,1,1.09.43,2.62,2.62,0,0,1,.8.88,2.29,2.29,0,0,1,.32,1.22,2.47,2.47,0,0,1-.39,1.35,2.52,2.52,0,0,1-1.07.92,2.7,2.7,0,0,1,1.46,1,2.45,2.45,0,0,1,.52,1.57,3.12,3.12,0,0,1-.33,1.39,2.81,2.81,0,0,1-.91,1.07,2.93,2.93,0,0,1-1.41.5c-.36,0-1.2.06-2.55.07h-3.56Zm2.11,1.74v2.42h1.39c.82,0,1.33,0,1.53,0a1.42,1.42,0,0,0,.85-.37,1.1,1.1,0,0,0,.31-.82,1.08,1.08,0,0,0-1.06-1.15c-.21,0-.81,0-1.8,0Zm0,4.16v2.79h2a10,10,0,0,0,1.44-.06,1.33,1.33,0,0,0,.77-.42,1.28,1.28,0,0,0,.3-.89,1.4,1.4,0,0,0-.23-.8,1.31,1.31,0,0,0-.66-.47,7.16,7.16,0,0,0-1.87-.15Z"/><path d="M128.66,41h2.11v5.66a12.64,12.64,0,0,0,.07,1.75,1.69,1.69,0,0,0,.65,1,2.23,2.23,0,0,0,1.39.39,2.18,2.18,0,0,0,1.36-.37,1.54,1.54,0,0,0,.55-.9,12.19,12.19,0,0,0,.09-1.78V41H137v5.49a14.56,14.56,0,0,1-.17,2.66,3.08,3.08,0,0,1-.63,1.31,3.18,3.18,0,0,1-1.23.85,5.42,5.42,0,0,1-2,.32,5.76,5.76,0,0,1-2.27-.35,3.32,3.32,0,0,1-1.23-.89,3,3,0,0,1-.59-1.16,12.68,12.68,0,0,1-.2-2.65Z"/><path d="M139.21,51.41V41h3.39a11.83,11.83,0,0,1,2.51.16,2.65,2.65,0,0,1,1.5,1,3.22,3.22,0,0,1,.61,2,3.39,3.39,0,0,1-.35,1.61,2.81,2.81,0,0,1-.89,1,3,3,0,0,1-1.09.5,12.13,12.13,0,0,1-2.19.15h-1.38v3.94Zm2.11-8.68v3h1.16a5.49,5.49,0,0,0,1.67-.16,1.41,1.41,0,0,0,.66-.51,1.43,1.43,0,0,0,.23-.82,1.37,1.37,0,0,0-.33-.94,1.49,1.49,0,0,0-.85-.46,9.87,9.87,0,0,0-1.52-.07Z"/><path d="M157.29,51.41H155L154.08,49h-4.17L149,51.41h-2.23L150.88,41h2.23Zm-3.88-4.13L152,43.4l-1.41,3.88Z"/><path d="M159.68,51.41V42.73h-3.1V41h8.3v1.77h-3.09v8.68Z"/><path d="M166.25,51.41V41H174v1.77h-5.64v2.32h5.24v1.76h-5.24v2.84h5.83v1.76Z"/><path d="M176,51.41V41h2.05l4.28,7V41h2V51.41h-2.12L178,44.6v6.81Z"/><path d="M190.64,51.41V41.05h2.11v8.6H198v1.76Z"/><path d="M208.93,51.41h-2.3L205.72,49h-4.18l-.86,2.37h-2.24L202.51,41h2.23ZM205,47.28,203.6,43.4l-1.41,3.88Z"/><path d="M210,51.41V41h3.16l1.89,7.13L217,41h3.16V51.41h-2V43.19l-2.07,8.22h-2L212,43.19v8.22Z"/><path d="M222.21,51.41V41h3.38a11.77,11.77,0,0,1,2.51.16,2.71,2.71,0,0,1,1.51,1,3.27,3.27,0,0,1,.6,2,3.4,3.4,0,0,1-.34,1.61,2.91,2.91,0,0,1-.89,1,3.09,3.09,0,0,1-1.1.5,12,12,0,0,1-2.19.15h-1.37v3.94Zm2.11-8.68v3h1.15a5.45,5.45,0,0,0,1.67-.16,1.41,1.41,0,0,0,.66-.51,1.44,1.44,0,0,0,.24-.82,1.37,1.37,0,0,0-.33-.94,1.52,1.52,0,0,0-.85-.46,10,10,0,0,0-1.52-.07Z"/><path d="M231.93,41H234v5.66a12.08,12.08,0,0,0,.08,1.75,1.69,1.69,0,0,0,.65,1,2.23,2.23,0,0,0,1.39.39,2.13,2.13,0,0,0,1.35-.37,1.45,1.45,0,0,0,.55-.9,11.83,11.83,0,0,0,.1-1.78V41h2.11v5.49a14.56,14.56,0,0,1-.17,2.66,3,3,0,0,1-.64,1.31,3,3,0,0,1-1.23.85,5.35,5.35,0,0,1-2,.32,5.83,5.83,0,0,1-2.27-.35,3.36,3.36,0,0,1-1.22-.89,2.85,2.85,0,0,1-.59-1.16,12.55,12.55,0,0,1-.21-2.65Z"/><path d="M242.51,51.41V41h2.05l4.28,7V41h2V51.41h-2.12l-4.21-6.81v6.81Z"/><path d="M257.9,47.57V45.81h4.54V50a5.56,5.56,0,0,1-1.92,1.13,6.92,6.92,0,0,1-2.55.49,5.67,5.67,0,0,1-2.85-.69,4.34,4.34,0,0,1-1.84-2,6.32,6.32,0,0,1-.61-2.78,6.09,6.09,0,0,1,.68-2.9,4.62,4.62,0,0,1,2-2,5.48,5.48,0,0,1,2.5-.52,5,5,0,0,1,3,.82,3.69,3.69,0,0,1,1.41,2.25l-2.1.4a2.16,2.16,0,0,0-.83-1.22,2.47,2.47,0,0,0-1.52-.44,2.88,2.88,0,0,0-2.2.87,3.72,3.72,0,0,0-.82,2.6,4.11,4.11,0,0,0,.83,2.8,2.77,2.77,0,0,0,2.17.93,3.74,3.74,0,0,0,1.33-.26,5.13,5.13,0,0,0,1.14-.63V47.57Z"/><path d="M268.45,41h4.18a11.94,11.94,0,0,1,1.85.1,2.83,2.83,0,0,1,1.09.43,2.62,2.62,0,0,1,.8.88,2.3,2.3,0,0,1,.33,1.22,2.5,2.5,0,0,1-1.47,2.27,2.76,2.76,0,0,1,1.47,1,2.51,2.51,0,0,1,.51,1.57,3.12,3.12,0,0,1-.33,1.39,2.73,2.73,0,0,1-.91,1.07,2.93,2.93,0,0,1-1.41.5c-.35,0-1.2.06-2.55.07h-3.56Zm2.11,1.74v2.42H272c.82,0,1.33,0,1.53,0a1.42,1.42,0,0,0,.85-.37,1.1,1.1,0,0,0,.31-.82,1.08,1.08,0,0,0-1.06-1.15c-.21,0-.81,0-1.8,0Zm0,4.16v2.79h2a10,10,0,0,0,1.44-.06,1.33,1.33,0,0,0,.77-.42,1.28,1.28,0,0,0,.3-.89,1.4,1.4,0,0,0-.23-.8,1.31,1.31,0,0,0-.66-.47,7.16,7.16,0,0,0-1.87-.15Z"/><path d="M288.41,51.41h-2.29L285.21,49H281l-.86,2.37h-2.24L282,41h2.23Zm-3.88-4.13-1.44-3.88-1.41,3.88Z"/><path d="M289.54,51.41V41H294a7.59,7.59,0,0,1,2.44.28,2.41,2.41,0,0,1,1.21,1,3,3,0,0,1,.46,1.65,2.79,2.79,0,0,1-.69,1.94,3.31,3.31,0,0,1-2.07,1,4.71,4.71,0,0,1,1.13.88,11,11,0,0,1,1.2,1.69l1.28,2h-2.53l-1.52-2.27a13.76,13.76,0,0,0-1.11-1.54,1.57,1.57,0,0,0-.64-.43,3.4,3.4,0,0,0-1.06-.12h-.43v4.36Zm2.11-6h1.56a7.82,7.82,0,0,0,1.9-.13,1.09,1.09,0,0,0,.59-.44,1.38,1.38,0,0,0,.21-.78,1.25,1.25,0,0,0-.28-.86,1.31,1.31,0,0,0-.79-.41c-.17,0-.69,0-1.54,0h-1.65Z"/><path d="M309.5,51.41h-2.29L306.29,49h-4.17l-.87,2.37H299L303.09,41h2.23Zm-3.88-4.13-1.44-3.88-1.41,3.88Z"/><path d="M311.89,51.41V42.73h-3.1V41h8.3v1.77H314v8.68Z"/></g></svg>